<svg width="32" height="32" viewBox="0 0 24 24" xmlns="http://www.w3.org/2000/svg">
  <rect width="24" height="24" rx="4" fill="#0E1015"/>
  <path d="M5 8.5C5 7.67157 5.67157 7 6.5 7H17.5C18.3284 7 19 7.67157 19 8.5V9.5C18.1716 9.5 17.5 10.1716 17.5 11C17.5 11.8284 18.1716 12.5 19 12.5V13.5C19 14.3284 18.3284 15 17.5 15H6.5C5.67157 15 5 14.3284 5 13.5V12.5C5.82843 12.5 6.5 11.8284 6.5 11C6.5 10.1716 5.82843 9.5 5 9.5V8.5Z" fill="#E8A33D"/>
  <line x1="12" y1="7" x2="12" y2="15" stroke="#0E1015" stroke-width="1.2" stroke-dasharray="1.5 1.5"/>
</svg>
